<svg width="276" height="28" viewBox="0 0 276 28" fill="none" xmlns="http://www.w3.org/2000/svg">
<g clip-path="url(#clip0_36_118)">
<path d="M82.1219 12.8011C82.1321 14.0985 83.1748 15.1514 84.4722 15.1514C85.7696 15.1514 86.8259 14.0985 86.8259 12.8011V6.30378C86.8259 5.00296 85.773 3.95007 84.4722 3.95007C83.1714 3.95007 82.1219 5.00296 82.1219 6.30378L82.1321 10.1383C82.1321 10.1383 81.8366 11.4154 80.4373 11.4697C79.0379 11.5241 75.2442 9.55754 73.8584 5.92678C73.3625 4.71427 72.6697 4.23198 71.5998 4.23198C70.5299 4.23198 69.6401 4.90786 69.348 5.89961C68.0336 10.23 64.9394 11.5682 63.9715 11.6361C63.2175 11.7109 62.708 12.2033 62.708 12.869C62.708 13.5347 63.2175 13.9729 63.9986 13.9729C65.6934 13.9729 69.0831 12.9234 71.6406 10.1791C74.3577 12.8419 79.9482 15.2635 82.1253 12.8011H82.1219Z" fill="black"/>
<path d="M37.9346 10.5187C37.2553 10.5187 36.7051 9.96852 36.7051 9.28923L36.7119 5.97774C36.7119 4.68031 37.7648 3.62402 39.0622 3.62402C40.3596 3.62402 41.3887 4.67691 41.3887 5.97774V8.07672H54.8657C56.3805 8.07672 56.8424 7.74726 57.3213 7.59103C57.9938 7.37706 58.741 7.51971 59.0263 8.16163C59.3116 8.80355 58.9787 9.44207 58.4319 9.7953C57.8851 10.1485 56.6624 10.4984 54.8657 10.4984H49.7201V11.789L59.0433 11.8128C59.7225 11.8128 60.2728 12.363 60.2728 13.0423C60.2728 13.7215 59.7225 14.2718 59.0433 14.2718H36.3179C35.6386 14.2718 35.0884 13.7215 35.0884 13.0423C35.0884 12.363 35.6386 11.8128 36.3179 11.8128L45.118 11.789V10.4984L37.9346 10.5153V10.5187Z" fill="black"/>
<path d="M36.2229 19.543C36.2229 16.8768 41.3073 14.7167 47.5805 14.7167C53.8537 14.7167 58.9381 16.8802 58.9381 19.543C58.9381 22.2058 53.8537 24.3693 47.5805 24.3693C41.3073 24.3693 36.2229 22.2092 36.2229 19.543ZM47.5805 22.0529C51.2384 22.0529 54.2035 20.9287 54.2035 19.543C54.2035 18.1572 51.2384 17.033 47.5805 17.033C43.9226 17.033 40.9575 18.1572 40.9575 19.543C40.9575 20.9287 43.9226 22.0529 47.5805 22.0529Z" fill="black"/>
<path d="M64.9597 16.5167C64.9597 15.8375 65.5099 15.2872 66.1892 15.2872H85.6439C86.3231 15.2872 86.8734 15.8375 86.8734 16.5167V21.9646C86.8734 22.6439 86.3231 23.1941 85.6439 23.1941H66.1892C65.5099 23.1941 64.9597 22.6439 64.9597 21.9646V16.5167ZM69.6196 17.6885V20.7555H82.132V17.6885H69.6196Z" fill="black"/>
<path d="M16.4182 28C25.4858 28 32.8365 21.732 32.8365 14C32.8365 6.26801 25.4858 0 16.4182 0C7.3507 0 0 6.26801 0 14C0 21.732 7.3507 28 16.4182 28Z" fill="white"/>
<path d="M1.17505 14C1.17505 6.82 8.00183 1.00195 16.4181 1.00195C24.8344 1.00195 31.6612 6.82 31.6612 14C31.6612 21.18 24.8378 26.9981 16.4181 26.9981C7.99844 26.9981 1.17505 21.1766 1.17505 14ZM16.4181 16.2043C19.0911 16.2043 21.2614 13.083 21.2614 9.23485C21.2614 5.38672 19.0945 2.26542 16.4181 2.26542C13.7418 2.26542 11.5749 5.38672 11.5749 9.23485C11.5749 13.083 13.7418 16.2043 16.4181 16.2043Z" fill="#E30613"/>
</g>
<path d="M117.234 20.364C117.527 20.0711 117.527 19.5962 117.234 19.3033L111.931 14L117.234 8.69672C117.527 8.40382 117.527 7.92895 117.234 7.63606V7.63606C116.941 7.34316 116.466 7.34316 116.173 7.63606L110.87 12.9394L105.567 7.63606C105.274 7.34316 104.799 7.34316 104.506 7.63606V7.63606C104.213 7.92895 104.213 8.40382 104.506 8.69672L109.809 14L104.506 19.3033C104.213 19.5962 104.213 20.0711 104.506 20.364V20.364C104.799 20.6569 105.274 20.6569 105.567 20.364L110.87 15.0607L116.173 20.364C116.466 20.6569 116.941 20.6569 117.234 20.364V20.364Z" fill="#A0ACA9"/>
<g clip-path="url(#clip1_36_118)">
<path d="M155.022 22.4H141.334L138.102 28H145.273L151.737 16.8L148.505 11.2H155.022L158.255 16.8L155.022 22.4ZM138.102 5.6H151.79L155.022 0H147.851L141.387 11.2L144.634 16.7925H138.117L134.862 11.2L138.102 5.6Z" fill="#191970"/>
<path d="M170.845 22.3323C175.287 22.3323 177.392 20.0773 177.392 17.5141C177.392 11.5758 167.793 13.8158 167.793 10.3732C167.793 9.1404 168.808 8.17073 171.311 8.17073C172.885 8.19739 174.424 8.63534 175.776 9.44107L176.723 7.10335C175.094 6.13631 173.228 5.63938 171.334 5.66765C166.891 5.66765 164.809 7.92268 164.809 10.5085C164.809 16.5219 174.431 14.2668 174.431 17.7246C174.431 18.9272 173.371 19.8293 170.845 19.8293C168.918 19.8271 167.044 19.2022 165.501 18.0478L164.456 20.3855C165.801 21.5431 168.327 22.3323 170.845 22.3323" fill="#414A5A"/>
<path d="M191.787 5.90063V16.8751L182.857 5.90063H180.384V22.0993H183.368V11.1323L192.298 22.0993H194.771V5.90063H191.787Z" fill="#414A5A"/>
<path d="M202.551 15.9882L205.558 8.90735L208.617 15.9882H202.551ZM211.255 22.0993H214.397L207.083 5.90063H204.122L196.831 22.0993H199.935L201.529 18.3409H209.632L211.255 22.0993Z" fill="#414A5A"/>
<path d="M222.982 14.8832H219.464V8.44882H222.982C225.62 8.44882 226.988 9.62896 226.988 11.666C226.988 13.703 225.62 14.8832 222.982 14.8832M223.124 5.90063H216.457V22.0993H219.464V17.4239H223.124C227.379 17.4239 230.017 15.229 230.017 11.666C230.017 8.10305 227.379 5.90063 223.124 5.90063Z" fill="#414A5A"/>
<path d="M236.873 22.0993H238.579V7.38144H244.277V5.90063H231.175V7.38144H236.873V22.0993Z" fill="#414A5A"/>
<path d="M247.952 16.3865L251.838 7.68211L255.732 16.3865H247.952ZM258.295 22.0993H260.107L252.695 5.90063H251.012L243.6 22.0993H245.359L247.306 17.7696H256.326L258.295 22.0993Z" fill="#414A5A"/>
<path d="M273.968 19.4609C272.725 20.3209 271.239 20.7584 269.728 20.7087C268.828 20.7476 267.928 20.6024 267.086 20.282C266.243 19.9615 265.474 19.4725 264.827 18.8449C264.18 18.2174 263.667 17.4644 263.321 16.632C262.975 15.7996 262.802 14.9053 262.813 14.0038C262.813 10.1326 265.752 7.29127 269.751 7.29127C270.651 7.25801 271.549 7.40884 272.389 7.73455C273.229 8.06025 273.994 8.55397 274.637 9.1855L275.697 8.10308C274.913 7.31453 273.974 6.69903 272.938 6.29636C271.902 5.89369 270.793 5.71279 269.683 5.76537C264.73 5.76537 261.122 9.25315 261.122 14.0338C261.122 18.8145 264.73 22.3023 269.661 22.3023C271.826 22.3578 273.939 21.6261 275.606 20.2427V14.0038H273.968V19.4609Z" fill="#414A5A"/>
</g>
<defs>
<clipPath id="clip0_36_118">
<rect width="86.87" height="28" fill="white"/>
</clipPath>
<clipPath id="clip1_36_118">
<rect width="140.834" height="28" fill="white" transform="translate(134.87)"/>
</clipPath>
</defs>
</svg>
